# Blender v2.81 (sub 16) OBJ File: ''
# www.blender.org
mtllib level.mtl
o Curve.004
v 0.000023 932.202820 -399.348816
v 0.000017 932.202820 -545.533203
v 0.000020 999.808655 -545.533203
v 0.000026 999.808655 -399.992859
v 0.000040 919.955200 -1.942256
v 0.000037 920.611206 -68.269035
v 0.000034 941.210938 -161.630447
v 0.000029 941.210938 -279.480560
v 0.000028 930.897949 -279.480560
v 0.000030 929.192261 -240.004715
v 0.000030 920.611206 -240.214706
v 0.000027 890.984314 -269.821594
v 0.000025 890.459473 -307.512634
v 0.000026 905.443481 -309.376190
v 0.000026 905.443481 -321.869873
v 0.000026 927.329102 -321.266174
v 0.000026 929.192261 -330.006500
v 0.000027 950.211853 -331.003937
v 0.000026 949.818237 -360.007111
v 0.000023 891.692871 -362.500610
v 0.000022 891.640381 -397.986877
v 0.000022 911.584045 -397.986877
v 0.000016 910.298218 -546.100037
v 0.000011 791.843201 -545.470093
v 0.000035 791.187134 0.000026
v -1000.000000 932.202881 -399.348785
v -999.969482 932.202881 -545.533142
v -1000.000000 999.808716 -545.533142
v -999.969482 999.808716 -399.992828
v -999.999939 919.955261 -1.942212
v -999.969421 920.611267 -68.268990
v -999.999939 941.210999 -161.630402
v -999.969482 941.210999 -279.480530
v -1000.000000 930.898010 -279.480530
v -1000.000000 929.192322 -240.004669
v -1000.000000 920.611267 -240.214661
v -999.969482 890.984375 -269.821564
v -1000.000000 890.459534 -307.512604
v -999.969482 905.443542 -309.376160
v -1000.000000 905.443542 -321.869843
v -1000.000000 927.329163 -321.266144
v -1000.000000 929.192322 -330.006470
v -1000.000000 950.211914 -331.003906
v -1000.000000 949.818298 -360.007080
v -1000.000000 891.692932 -362.500580
v -1000.000000 891.640442 -397.986847
v -1000.000000 911.584106 -397.986847
v -1000.000000 910.298279 -546.099976
v -1000.000000 791.843262 -545.470032
v -999.999939 791.187195 0.000070
vn 1.0000 -0.0000 -0.0000
vn -1.0000 0.0004 -0.0002
vn -1.0000 -0.0020 0.0008
vn -1.0000 -0.0005 0.0002
vn -1.0000 -0.0000 -0.0005
vn -1.0000 0.0003 0.0000
vn -1.0000 0.0000 0.0000
vn -1.0000 0.0005 0.0004
vn -1.0000 0.0030 0.0001
vn -1.0000 0.0017 -0.0003
vn -1.0000 0.0023 0.0024
vn -1.0000 -0.0002 -0.0002
vn -1.0000 -0.0014 0.0004
vn -0.0000 -1.0000 -0.0000
vn -0.0000 -0.0000 -1.0000
vn 0.0000 1.0000 -0.0000
vn 0.0000 0.0095 1.0000
vn 0.0000 1.0000 0.0099
vn 0.0000 0.9765 0.2155
vn -0.0000 -0.9991 -0.0432
vn -0.0000 0.0245 -0.9997
vn 0.0000 0.7069 -0.7073
vn 0.0000 0.9999 -0.0139
vn 0.0000 0.1234 0.9924
vn 0.0000 -0.0276 0.9996
vn 0.0000 0.9780 0.2085
vn 0.0000 0.0474 0.9989
vn 0.0000 0.9999 -0.0136
vn 0.0000 0.0429 -0.9991
vn 0.0000 1.0000 -0.0015
vn 0.0000 0.0000 1.0000
vn 0.0000 1.0000 -0.0087
vn 0.0000 -0.0053 -1.0000
vn -0.0000 -1.0000 -0.0012
vn 0.0000 0.0151 0.9999
usemtl None
s off
f 2//1 4//1 1//1
f 24//1 13//1 12//1
f 2//1 3//1 4//1
f 6//1 5//1 25//1
f 25//1 24//1 12//1
f 24//1 23//1 21//1
f 23//1 22//1 21//1
f 20//1 19//1 17//1
f 19//1 18//1 17//1
f 24//1 21//1 20//1
f 24//1 20//1 13//1
f 7//1 6//1 25//1
f 9//1 8//1 10//1
f 8//1 7//1 10//1
f 20//1 17//1 15//1
f 17//1 16//1 15//1
f 15//1 14//1 13//1
f 10//1 7//1 11//1
f 7//1 25//1 12//1
f 11//1 7//1 12//1
f 20//1 15//1 13//1
f 27//2 26//2 29//2
f 49//3 37//3 38//3
f 27//4 29//4 28//4
f 31//5 50//5 30//5
f 50//6 37//6 49//6
f 49//7 46//7 48//7
f 48//7 46//7 47//7
f 45//7 42//7 44//7
f 44//7 42//7 43//7
f 49//7 45//7 46//7
f 49//7 38//7 45//7
f 32//8 50//8 31//8
f 34//9 35//9 33//9
f 33//10 35//10 32//10
f 45//7 40//7 42//7
f 42//7 40//7 41//7
f 40//11 38//11 39//11
f 35//7 36//7 32//7
f 32//12 37//12 50//12
f 36//13 37//13 32//13
f 45//7 38//7 40//7
f 2//14 1//14 26//14 27//14
f 3//15 2//15 27//15 28//15
f 4//16 3//16 28//16 29//16
f 1//17 4//17 29//17 26//17
f 5//18 6//18 31//18 30//18
f 6//19 7//19 32//19 31//19
f 7//16 8//16 33//16 32//16
f 8//15 9//15 34//15 33//15
f 9//20 10//20 35//20 34//20
f 10//21 11//21 36//21 35//21
f 11//22 12//22 37//22 36//22
f 12//23 13//23 38//23 37//23
f 13//24 14//24 39//24 38//24
f 14//16 15//16 40//16 39//16
f 15//25 16//25 41//25 40//25
f 16//26 17//26 42//26 41//26
f 17//27 18//27 43//27 42//27
f 18//28 19//28 44//28 43//28
f 19//29 20//29 45//29 44//29
f 20//30 21//30 46//30 45//30
f 21//31 22//31 47//31 46//31
f 22//32 23//32 48//32 47//32
f 23//33 24//33 49//33 48//33
f 24//34 25//34 50//34 49//34
f 25//35 5//35 30//35 50//35
o Curve.006
v 0.000030 980.494751 -299.507202
v 0.000026 900.641296 -299.507202
v 0.000028 901.297302 -271.160217
v 0.000028 910.954285 -262.787323
v 0.000028 919.955200 -269.874084
v 0.000028 921.687134 -290.635651
v 0.000030 979.208923 -292.420471
v -1000.000000 980.494812 -299.507172
v -1000.000000 900.641357 -299.507172
v -1000.000000 901.297363 -271.160187
v -1000.000000 910.954346 -262.787292
v -1000.000000 919.955261 -269.874054
v -1000.000000 921.687195 -290.635620
v -1000.000000 979.208984 -292.420441
vn 1.0000 -0.0000 -0.0000
vn -1.0000 -0.0000 0.0000
vn -0.0000 0.0000 -1.0000
vn -0.0000 -0.9997 0.0231
vn -0.0000 -0.6551 0.7556
vn 0.0000 0.6186 0.7857
vn 0.0000 0.9965 0.0831
vn 0.0000 0.0310 0.9995
vn 0.0000 0.9839 0.1785
usemtl None
s off
f 53//36 52//36 56//36
f 52//36 51//36 56//36
f 51//36 57//36 56//36
f 56//36 55//36 53//36
f 55//36 54//36 53//36
f 60//37 63//37 59//37
f 59//37 63//37 58//37
f 58//37 63//37 64//37
f 63//37 60//37 62//37
f 62//37 60//37 61//37
f 51//38 52//38 59//38 58//38
f 52//39 53//39 60//39 59//39
f 53//40 54//40 61//40 60//40
f 54//41 55//41 62//41 61//41
f 55//42 56//42 63//42 62//42
f 56//43 57//43 64//43 63//43
f 57//44 51//44 58//44 64//44
