<svg version="1.1" width="10000cm" height="10000cm" viewBox="0.0 0.0 100.0 100.0" fill="none" stroke="none" stroke-linecap="square" stroke-miterlimit="10" xmlns:xlink="http://www.w3.org/1999/xlink" xmlns="http://www.w3.org/2000/svg">
    <clipPath id="p.0">
        <path d="m0 0l100.0 0l0 100.0l-100.0 0l0 -100.0z" clip-rule="nonzero" />
    </clipPath>
    <g clip-path="url(#p.0)">
        <title>Curve.006</title>
        <path fill="#000000" fill-opacity="0.0" d="m0 0l100.0 0l0 100.0l-100.0 0z" fill-rule="evenodd" />
        <path fill="#000000" fill-opacity="0.0" d="m0.19422573 7.9868765l6.632546 -0.06561661l9.335958 -2.0603676l11.784777 0l0 1.031496l-3.947506 0.17060375l0.020998001 0.8582678l2.9606285 2.963255l3.7690296 0.052493095l0.18635178 -1.4986877l1.2493439 0l-0.060367584 -2.1889763l0.8740158 -0.18635178l0.099739075 -2.1023622l2.900261 0.03937006l0.24934387 5.813648l3.5485573 0.0052490234l0 -1.99475l14.811024 0.1286087l-0.062992096 11.84777l-54.545933 0.06561661z" fill-rule="evenodd" />
        <path stroke="#000000" stroke-width="0.1" stroke-linejoin="round" stroke-linecap="butt" d="m0.19422573 7.9868765l6.632546 -0.06561661l9.335958 -2.0603676l11.784777 0l0 1.031496l-3.947506 0.17060375l0.020998001 0.8582678l2.9606285 2.963255l3.7690296 0.052493095l0.18635178 -1.4986877l1.2493439 0l-0.060367584 -2.1889763l0.8740158 -0.18635178l0.099739075 -2.1023622l2.900261 0.03937006l0.24934387 5.813648l3.5485573 0.0052490234l0 -1.99475l14.811024 0.1286087l-0.062992096 11.84777l-54.545933 0.06561661z" fill-rule="evenodd" />
        <path fill="#000000" fill-opacity="0.0" d="m39.934093 6.761877l14.618153 0l0 -6.761877l-14.553749 0z" fill-rule="evenodd" />
        <path stroke="#000000" stroke-width="0.1" stroke-linejoin="round" stroke-linecap="butt" d="m39.934093 6.761877l14.618153 0l0 -6.761877l-14.553749 0z" fill-rule="evenodd" />
    </g>
    <g>
        <title>Curve.000</title>
        <path fill="#000000" fill-opacity="0.0" d="m29.95013 1.9317585l0 7.986877l-2.8346443 -0.06561661l-0.83727074 -0.96587944l0.70866203 -0.90026283l2.0761147 -0.17322826l0.17847824 -5.7532806z" fill-rule="evenodd" />
        <path stroke="#000000" stroke-width="0.0" stroke-linejoin="round" stroke-linecap="butt" d="m29.95013 1.9317585l0 7.986877l-2.8346443 -0.06561661l-0.83727074 -0.96587944l0.70866203 -0.90026283l2.0761147 -0.17322826l0.17847824 -5.7532806z" fill-rule="evenodd" />
    </g>
</svg>