# Blender v2.81 (sub 16) OBJ File: ''
# www.blender.org
mtllib level.mtl
o Curve.006
v -0.000000 -7.985353 -0.194230
v -0.000001 -7.919748 -6.826912
v -0.000001 -5.859774 -16.163061
v -0.000001 -5.859773 -27.948078
v -0.000002 -6.891072 -27.948078
v -0.000001 -7.061644 -24.000492
v -0.000001 -7.919748 -24.021490
v -0.000002 -10.882438 -26.982180
v -0.000002 -10.934921 -30.751287
v -0.000002 -9.436519 -30.937643
v -0.000002 -9.436519 -32.187012
v -0.000002 -7.247960 -32.126644
v -0.000002 -7.061644 -33.000675
v -0.000002 -4.959682 -33.100418
v -0.000002 -4.999045 -36.000740
v -0.000002 -10.811584 -36.250088
v -0.000002 -10.816832 -39.798717
v -0.000002 -8.822462 -39.798717
v -0.000003 -8.951045 -54.610046
v -0.000003 -20.796556 -54.547050
v -0.000001 -20.862162 -0.000002
v -0.000002 -6.760585 -39.934914
v -0.000003 -6.760585 -54.553364
v -0.000002 0.000002 -54.553364
v -0.000002 0.000002 -39.999317
v -10.000000 -7.985353 -0.194230
v -10.000001 -7.919748 -6.826912
v -10.000001 -5.859774 -16.163061
v -10.000002 -5.859773 -27.948078
v -10.000002 -6.891072 -27.948078
v -10.000001 -7.061644 -24.000492
v -10.000001 -7.919747 -24.021490
v -10.000002 -10.882438 -26.982180
v -10.000002 -10.934921 -30.751287
v -10.000002 -9.436519 -30.937643
v -10.000002 -9.436519 -32.187012
v -10.000002 -7.247959 -32.126644
v -10.000002 -7.061643 -33.000675
v -10.000002 -4.959682 -33.100418
v -10.000002 -4.999044 -36.000740
v -10.000002 -10.811584 -36.250088
v -10.000002 -10.816832 -39.798717
v -10.000002 -8.822462 -39.798717
v -9.999698 -8.951045 -54.610046
v -10.000003 -20.796556 -54.547050
v -10.000001 -20.862162 -0.000001
v -10.000002 -6.760585 -39.934914
v -10.000003 -6.760584 -54.553364
v -10.000003 0.000003 -54.553364
v -9.999697 0.000002 -39.999317
vn 1.0000 -0.0000 -0.0000
vn -1.0000 0.0000 -0.0000
vn 0.0000 1.0000 0.0099
vn 0.0000 0.9765 0.2155
vn 0.0000 1.0000 0.0000
vn 0.0000 0.0000 -1.0000
vn -0.0000 -0.9991 -0.0432
vn 0.0000 0.0245 -0.9997
vn -0.0000 0.7069 -0.7073
vn 0.0000 0.9999 -0.0139
vn 0.0000 0.1234 0.9924
vn 0.0000 -0.0276 0.9996
vn 0.0000 0.9780 0.2085
vn 0.0000 0.0474 0.9989
vn 0.0000 0.9999 -0.0136
vn 0.0000 0.0429 -0.9991
vn 0.0000 1.0000 -0.0015
vn 0.0000 0.0000 1.0000
vn 0.0000 1.0000 -0.0087
vn 0.0000 -0.0053 -1.0000
vn 0.0000 -1.0000 -0.0012
vn 0.0000 0.0151 0.9999
vn -0.0000 -1.0000 0.0000
vn 0.0000 0.0095 1.0000
usemtl None
s off
f 20//1 9//1 8//1
f 23//1 25//1 22//1
f 2//1 1//1 21//1
f 21//1 20//1 8//1
f 20//1 19//1 17//1
f 19//1 18//1 17//1
f 16//1 15//1 13//1
f 15//1 14//1 13//1
f 20//1 17//1 16//1
f 20//1 16//1 9//1
f 3//1 2//1 21//1
f 5//1 4//1 6//1
f 4//1 3//1 6//1
f 16//1 13//1 11//1
f 13//1 12//1 11//1
f 11//1 10//1 9//1
f 6//1 3//1 7//1
f 3//1 21//1 8//1
f 7//1 3//1 8//1
f 16//1 11//1 9//1
f 23//1 24//1 25//1
f 45//2 33//2 34//2
f 48//2 47//2 50//2
f 27//2 46//2 26//2
f 46//2 33//2 45//2
f 45//2 42//2 44//2
f 44//2 42//2 43//2
f 41//2 38//2 40//2
f 40//2 38//2 39//2
f 45//2 41//2 42//2
f 45//2 34//2 41//2
f 28//2 46//2 27//2
f 30//2 31//2 29//2
f 29//2 31//2 28//2
f 41//2 36//2 38//2
f 38//2 36//2 37//2
f 36//2 34//2 35//2
f 31//2 32//2 28//2
f 28//2 33//2 46//2
f 32//2 33//2 28//2
f 41//2 34//2 36//2
f 48//2 50//2 49//2
f 1//3 2//3 27//3 26//3
f 2//4 3//4 28//4 27//4
f 3//5 4//5 29//5 28//5
f 4//6 5//6 30//6 29//6
f 5//7 6//7 31//7 30//7
f 6//8 7//8 32//8 31//8
f 7//9 8//9 33//9 32//9
f 8//10 9//10 34//10 33//10
f 9//11 10//11 35//11 34//11
f 10//5 11//5 36//5 35//5
f 11//12 12//12 37//12 36//12
f 12//13 13//13 38//13 37//13
f 13//14 14//14 39//14 38//14
f 14//15 15//15 40//15 39//15
f 15//16 16//16 41//16 40//16
f 16//17 17//17 42//17 41//17
f 17//18 18//18 43//18 42//18
f 18//19 19//19 44//19 43//19
f 19//20 20//20 45//20 44//20
f 20//21 21//21 46//21 45//21
f 21//22 1//22 26//22 46//22
f 23//23 22//23 47//23 48//23
f 24//6 23//6 48//6 49//6
f 25//5 24//5 49//5 50//5
f 22//24 25//24 50//24 47//24
o Curve.000
v -0.000001 -1.931389 -29.950745
v -0.000002 -9.916742 -29.950745
v -0.000002 -9.851138 -27.116041
v -0.000002 -8.885444 -26.278753
v -0.000002 -7.985352 -26.987431
v -0.000002 -7.812157 -29.063587
v -0.000001 -2.059974 -29.242069
v -10.000001 -1.931388 -29.950745
v -10.000002 -9.916742 -29.950745
v -10.000002 -9.851138 -27.116041
v -10.000002 -8.885444 -26.278753
v -10.000002 -7.985352 -26.987431
v -10.000002 -7.812156 -29.063587
v -10.000001 -2.059973 -29.242069
vn 1.0000 -0.0000 -0.0000
vn -1.0000 0.0000 0.0000
vn 0.0000 0.0000 -1.0000
vn 0.0000 -0.9997 0.0231
vn 0.0000 -0.6551 0.7556
vn 0.0000 0.6186 0.7857
vn 0.0000 0.9965 0.0831
vn 0.0000 0.0310 0.9995
vn 0.0000 0.9839 0.1785
usemtl None
s off
f 53//25 52//25 56//25
f 52//25 51//25 56//25
f 51//25 57//25 56//25
f 56//25 55//25 53//25
f 55//25 54//25 53//25
f 60//26 63//26 59//26
f 59//26 63//26 58//26
f 58//26 63//26 64//26
f 63//26 60//26 62//26
f 62//26 60//26 61//26
f 51//27 52//27 59//27 58//27
f 52//28 53//28 60//28 59//28
f 53//29 54//29 61//29 60//29
f 54//30 55//30 62//30 61//30
f 55//31 56//31 63//31 62//31
f 56//32 57//32 64//32 63//32
f 57//33 51//33 58//33 64//33
