# Blender v2.80 (sub 75) OBJ File: ''
# www.blender.org
mtllib level.mtl
o Curve.006_Curve.045
v -0.000001 -1.931389 -29.950745
v -0.000002 -9.916742 -29.950745
v -0.000002 -9.851138 -27.116041
v -0.000002 -8.885444 -26.278753
v -0.000002 -7.985352 -26.987431
v -0.000002 -7.812157 -29.063587
v -0.000001 -2.059974 -29.242069
v -0.000000 -7.985353 -0.194230
v -0.000001 -7.919748 -6.826912
v -0.000001 -5.859774 -16.163061
v -0.000001 -5.859773 -27.948078
v -0.000002 -6.891072 -27.948078
v -0.000001 -7.061644 -24.000492
v -0.000001 -7.919748 -24.021490
v -0.000002 -10.882438 -26.982180
v -0.000002 -10.934921 -30.751287
v -0.000002 -9.436519 -30.937643
v -0.000002 -9.436519 -32.187012
v -0.000002 -7.247960 -32.126644
v -0.000002 -7.061644 -33.000675
v -0.000002 -4.959682 -33.100418
v -0.000002 -4.999045 -36.000740
v -0.000002 -10.811584 -36.250088
v -0.000002 -10.816832 -39.798717
v -0.000002 -8.822462 -39.798717
v -0.000003 -8.951045 -54.610046
v -0.000003 -20.796556 -54.547050
v -0.000001 -20.862162 -0.000002
v -0.000002 -6.760585 -39.934914
v -0.000003 -6.760585 -54.553364
v -0.000002 0.000002 -54.553364
v -0.000002 0.000002 -39.999317
v -10.000001 -1.931388 -29.950745
v -10.000002 -9.916742 -29.950745
v -10.000002 -9.851138 -27.116041
v -10.000002 -8.885444 -26.278753
v -10.000002 -7.985352 -26.987431
v -10.000002 -7.812156 -29.063587
v -10.000001 -2.059973 -29.242069
v -10.000000 -7.985353 -0.194230
v -10.000001 -7.919748 -6.826912
v -10.000001 -5.859774 -16.163061
v -10.000002 -5.859773 -27.948078
v -10.000002 -6.891072 -27.948078
v -10.000001 -7.061644 -24.000492
v -10.000001 -7.919747 -24.021490
v -10.000002 -10.882438 -26.982180
v -10.000002 -10.934921 -30.751287
v -10.000002 -9.436519 -30.937643
v -10.000002 -9.436519 -32.187012
v -10.000002 -7.247959 -32.126644
v -10.000002 -7.061643 -33.000675
v -10.000002 -4.959682 -33.100418
v -10.000002 -4.999044 -36.000740
v -10.000002 -10.811584 -36.250088
v -10.000002 -10.816832 -39.798717
v -10.000002 -8.822462 -39.798717
v -9.999698 -8.951045 -54.610046
v -10.000003 -20.796556 -54.547050
v -10.000001 -20.862162 -0.000001
v -10.000002 -6.760585 -39.934914
v -10.000003 -6.760584 -54.553364
v -10.000003 0.000003 -54.553364
v -9.999697 0.000002 -39.999317
vn 1.0000 -0.0000 -0.0000
vn -1.0000 0.0000 0.0000
vn 0.0000 0.0000 -1.0000
vn 0.0000 -0.9997 0.0231
vn 0.0000 -0.6551 0.7556
vn 0.0000 0.6186 0.7857
vn 0.0000 0.9965 0.0831
vn 0.0000 0.0310 0.9995
vn 0.0000 0.9839 0.1785
vn 0.0000 1.0000 0.0099
vn 0.0000 0.9765 0.2155
vn 0.0000 1.0000 0.0000
vn -0.0000 -0.9991 -0.0432
vn 0.0000 0.0245 -0.9997
vn -0.0000 0.7069 -0.7073
vn 0.0000 0.9999 -0.0139
vn 0.0000 0.1234 0.9924
vn 0.0000 -0.0276 0.9996
vn 0.0000 0.9780 0.2085
vn 0.0000 0.0474 0.9989
vn 0.0000 0.9999 -0.0136
vn 0.0000 0.0429 -0.9991
vn 0.0000 1.0000 -0.0015
vn 0.0000 0.0000 1.0000
vn 0.0000 1.0000 -0.0087
vn 0.0000 -0.0053 -1.0000
vn 0.0000 -1.0000 -0.0012
vn 0.0000 0.0151 0.9999
vn -0.0000 -1.0000 0.0000
vn 0.0000 0.0095 1.0000
usemtl None
s off
f 3//1 2//1 6//1
f 27//1 16//1 15//1
f 30//1 32//1 29//1
f 2//1 1//1 6//1
f 1//1 7//1 6//1
f 6//1 5//1 3//1
f 5//1 4//1 3//1
f 9//1 8//1 28//1
f 28//1 27//1 15//1
f 27//1 26//1 24//1
f 26//1 25//1 24//1
f 23//1 22//1 20//1
f 22//1 21//1 20//1
f 27//1 24//1 23//1
f 27//1 23//1 16//1
f 10//1 9//1 28//1
f 12//1 11//1 13//1
f 11//1 10//1 13//1
f 23//1 20//1 18//1
f 20//1 19//1 18//1
f 18//1 17//1 16//1
f 13//1 10//1 14//1
f 10//1 28//1 15//1
f 14//1 10//1 15//1
f 23//1 18//1 16//1
f 30//1 31//1 32//1
f 35//2 38//2 34//2
f 59//2 47//2 48//2
f 62//2 61//2 64//2
f 34//2 38//2 33//2
f 33//2 38//2 39//2
f 38//2 35//2 37//2
f 37//2 35//2 36//2
f 41//2 60//2 40//2
f 60//2 47//2 59//2
f 59//2 56//2 58//2
f 58//2 56//2 57//2
f 55//2 52//2 54//2
f 54//2 52//2 53//2
f 59//2 55//2 56//2
f 59//2 48//2 55//2
f 42//2 60//2 41//2
f 44//2 45//2 43//2
f 43//2 45//2 42//2
f 55//2 50//2 52//2
f 52//2 50//2 51//2
f 50//2 48//2 49//2
f 45//2 46//2 42//2
f 42//2 47//2 60//2
f 46//2 47//2 42//2
f 55//2 48//2 50//2
f 62//2 64//2 63//2
f 1//3 2//3 34//3 33//3
f 2//4 3//4 35//4 34//4
f 3//5 4//5 36//5 35//5
f 4//6 5//6 37//6 36//6
f 5//7 6//7 38//7 37//7
f 6//8 7//8 39//8 38//8
f 7//9 1//9 33//9 39//9
f 8//10 9//10 41//10 40//10
f 9//11 10//11 42//11 41//11
f 10//12 11//12 43//12 42//12
f 11//3 12//3 44//3 43//3
f 12//13 13//13 45//13 44//13
f 13//14 14//14 46//14 45//14
f 14//15 15//15 47//15 46//15
f 15//16 16//16 48//16 47//16
f 16//17 17//17 49//17 48//17
f 17//12 18//12 50//12 49//12
f 18//18 19//18 51//18 50//18
f 19//19 20//19 52//19 51//19
f 20//20 21//20 53//20 52//20
f 21//21 22//21 54//21 53//21
f 22//22 23//22 55//22 54//22
f 23//23 24//23 56//23 55//23
f 24//24 25//24 57//24 56//24
f 25//25 26//25 58//25 57//25
f 26//26 27//26 59//26 58//26
f 27//27 28//27 60//27 59//27
f 28//28 8//28 40//28 60//28
f 30//29 29//29 61//29 62//29
f 31//3 30//3 62//3 63//3
f 32//12 31//12 63//12 64//12
f 29//30 32//30 64//30 61//30
